<?xml version="1.0" standalone="no"?>
<!DOCTYPE svg PUBLIC "-//W3C//DTD SVG 20010904//EN"
 "http://www.w3.org/TR/2001/REC-SVG-20010904/DTD/svg10.dtd">
<svg version="1.0" xmlns="http://www.w3.org/2000/svg"
 width="64.000000pt" height="64.000000pt" viewBox="0 0 64.000000 64.000000"
 preserveAspectRatio="xMidYMid meet">

<g transform="translate(0.000000,64.000000) scale(0.100000,-0.100000)"
fill="#000000" stroke="none">
<path d="M303 593 c9 -2 25 -2 35 0 9 3 1 5 -18 5 -19 0 -27 -2 -17 -5z"/>
<path d="M258 583 c7 -3 16 -2 19 1 4 3 -2 6 -13 5 -11 0 -14 -3 -6 -6z"/>
<path d="M380 581 c80 -25 151 -94 175 -171 7 -25 14 -37 14 -27 3 73 -127
209 -196 206 -12 0 -10 -3 7 -8z"/>
<path d="M205 568 c-29 -15 -85 -69 -97 -93 -6 -11 6 -1 27 23 20 23 53 51 74
62 20 10 32 19 26 19 -5 0 -19 -5 -30 -11z"/>
<path d="M300 497 c-23 -11 -25 -17 -22 -62 4 -65 14 -74 42 -35 12 17 20 34
17 37 -3 3 -12 -4 -19 -16 -7 -12 -16 -21 -20 -21 -15 0 -8 24 14 47 22 23 12
33 -10 11 -9 -9 -12 -8 -12 5 0 9 4 17 8 17 5 0 17 7 28 15 23 17 9 18 -26 2z"/>
<path d="M250 448 c0 -50 0 -51 -20 -33 -29 26 -24 3 5 -25 l25 -23 0 66 c0
37 -2 67 -5 67 -3 0 -5 -23 -5 -52z"/>
<path d="M350 442 c0 -32 3 -61 6 -64 3 -3 19 1 35 9 17 8 28 17 25 20 -2 2
-14 0 -25 -7 -20 -10 -21 -8 -21 45 0 30 -4 55 -10 55 -6 0 -10 -26 -10 -58z"/>
<path d="M72 380 c0 -14 2 -19 5 -12 2 6 2 18 0 25 -3 6 -5 1 -5 -13z"/>
<path d="M572 330 c0 -14 2 -19 5 -12 2 6 2 18 0 25 -3 6 -5 1 -5 -13z"/>
<path d="M71 283 c-2 -47 50 -139 98 -169 17 -12 11 -1 -20 32 -42 45 -58 78
-72 139 -4 18 -5 18 -6 -2z"/>
<path d="M557 259 c-10 -51 -57 -116 -107 -150 -24 -16 -38 -29 -32 -29 6 0
30 15 54 33 46 35 103 131 96 163 -3 12 -7 6 -11 -17z"/>
<path d="M236 259 c-15 -12 -23 -25 -18 -28 5 -3 14 -26 20 -51 9 -39 10 -41
11 -14 1 22 9 37 26 48 14 9 25 22 25 28 0 6 -8 4 -18 -5 -24 -22 -32 -21 -32
2 0 24 30 36 47 18 8 -8 16 -36 19 -63 3 -27 8 -51 11 -54 3 -3 15 8 28 25 13
16 22 32 19 34 -3 3 -14 -5 -24 -19 -17 -22 -20 -23 -20 -6 0 11 8 28 17 38
16 18 16 18 0 12 -26 -10 -21 21 6 34 20 11 19 12 -10 6 -17 -3 -34 0 -38 5
-10 17 -40 13 -69 -10z"/>
<path d="M436 240 c8 -48 2 -50 -25 -7 l-21 32 2 -65 c1 -46 3 -53 5 -25 l5
40 30 -35 c27 -32 29 -33 24 -10 -3 14 -6 44 -6 68 0 23 -5 42 -10 42 -6 0 -8
-15 -4 -40z"/>
<path d="M207 89 c7 -7 15 -10 18 -7 3 3 -2 9 -12 12 -14 6 -15 5 -6 -5z"/>
<path d="M255 70 c19 -8 123 -14 114 -6 -2 2 -33 6 -69 9 -38 3 -57 1 -45 -3z"/>
</g>
</svg>
